<svg xmlns="http://www.w3.org/2000/svg" xmlns:xlink="http://www.w3.org/1999/xlink" version="1.1" x="0px" y="0px" viewBox="0 0 100 100" enable-background="new 0 0 100 100" xml:space="preserve"><g><path fill="#000000" d="M62.344,94.534c-0.748,0-1.373-0.585-1.414-1.341c-0.003-0.051-0.278-5.23-0.33-12.369   c-0.016-2.207,1.345-4.262,3.068-6.864c1.614-2.438,3.623-5.472,4.953-9.451c2.43-7.273,3.526-11.545,4.326-14.664   c0.255-0.992,0.483-1.882,0.717-2.728l0.458-1.637c0.996-3.544,3.33-11.843,1.734-12.606c-0.55-0.263-0.78-0.162-0.867-0.123   c-1.064,0.469-1.994,3.527-2.673,5.761c-0.236,0.776-0.472,1.553-0.721,2.291c-0.241,0.713-0.462,1.427-0.676,2.117   c-0.947,3.051-1.695,5.461-3.459,6.372c-0.745,0.384-1.594,0.438-2.456,0.155c-2.858-0.939-2.547-2.708-1.982-5.918   c0.429-2.442,1.294-5.997,2.058-9.132c0.486-1.996,0.945-3.881,1.184-5.049c0.146-0.717,0.302-1.448,0.459-2.184   c0.887-4.158,1.991-9.333,0.784-11.031c-0.146-0.207-0.391-0.453-0.979-0.527c-2.068-0.255-2.785,2.044-4.142,8.213   c-0.363,1.652-0.775,3.525-1.292,5.477c-0.304,1.146-0.602,2.319-0.896,3.478c-2.139,8.425-3.277,12.477-5.899,12.288   c-1.564-0.105-3.34-1.651-3.189-5.666c0.163-4.371,0.675-18.53,0.787-22.117c0.18-5.814-0.864-7.787-1.502-8.445   c-0.343-0.354-0.726-0.511-1.243-0.511c-2.059,0-2.345,4.351-2.796,14.191l-0.059,1.284c-0.124,2.678-0.208,5.265-0.286,7.634   c-0.348,10.683-0.535,12.635-2.101,13.274c-0.432,0.176-0.908,0.16-1.339-0.043c-1.212-0.576-1.91-2.499-4.141-9.833   c-0.766-2.518-1.558-5.121-2.385-7.509c-2.924-8.439-4.846-11.812-6.402-11.292c-0.873,0.292-1.558,1.901,0.137,7.911   c1.602,5.688,3.417,12.229,4.686,17.875c0.065,0.292,0.212,0.789,0.397,1.424c1.75,6.002,3.194,12.005,0.033,13.707   c-2.5,1.343-5.248-2.181-8.615-7.885c-1.704-2.886-4.276-7.254-5.416-6.72c-0.857,0.396-0.908,3.198,0.49,7.202   c1.471,4.213,2.664,7.05,3.622,9.33l0.736,1.769c1.547,3.765,3.885,9.455,9.583,13.802c4.116,3.142,3.438,16.188,3.26,18.771   c-0.054,0.781-0.728,1.363-1.511,1.317c-0.781-0.054-1.37-0.73-1.317-1.511c0.397-5.793-0.008-14.688-2.152-16.323   c-6.308-4.813-8.821-10.931-10.485-14.979l-0.728-1.748c-0.973-2.316-2.185-5.198-3.685-9.494   c-1.151-3.295-2.553-9.069,0.997-10.71c3.464-1.599,6.052,2.781,9.046,7.852c3.078,5.213,4.487,6.416,4.976,6.692   c0.351-0.497,0.72-2.472-1.557-10.28c-0.208-0.711-0.368-1.27-0.442-1.596c-1.253-5.579-3.057-12.076-4.649-17.728   c-0.833-2.954-2.784-9.873,1.693-11.369c4.157-1.389,6.531,3.102,9.979,13.053c0.845,2.439,1.645,5.069,2.418,7.612   c0.538,1.769,1.145,3.765,1.686,5.364c0.161-2.206,0.259-5.227,0.351-8.029c0.078-2.381,0.162-4.982,0.287-7.673l0.059-1.283   c0.515-11.25,0.774-16.896,5.627-16.896c1.273,0,2.407,0.475,3.278,1.373c1.712,1.766,2.464,5.203,2.3,10.506   c-0.112,3.59-0.625,17.76-0.787,22.135c-0.053,1.391,0.208,2.155,0.412,2.507c0.941-1.447,2.221-6.491,3.095-9.933   c0.296-1.167,0.597-2.35,0.903-3.506c0.501-1.893,0.906-3.735,1.263-5.359c1.3-5.915,2.416-11.027,7.262-10.417   c1.243,0.155,2.259,0.742,2.938,1.697c1.929,2.714,0.835,7.839-0.322,13.265c-0.155,0.726-0.309,1.449-0.454,2.158   c-0.249,1.22-0.692,3.042-1.207,5.153c-0.753,3.094-1.607,6.6-2.021,8.952c-0.132,0.752-0.369,2.097-0.333,2.583   c0.074,0.033,0.199,0.083,0.408,0.151c0.187,0.061,0.244,0.033,0.271,0.019c0.708-0.365,1.484-2.866,2.051-4.692   c0.221-0.712,0.45-1.448,0.698-2.184c0.24-0.711,0.467-1.459,0.695-2.208c1.022-3.362,1.987-6.537,4.243-7.531   c0.689-0.303,1.809-0.52,3.232,0.16c3.746,1.792,1.815,8.66-0.229,15.931l-0.454,1.625c-0.229,0.83-0.454,1.703-0.703,2.677   c-0.811,3.16-1.921,7.489-4.383,14.858c-1.449,4.333-3.572,7.54-5.278,10.117c-1.456,2.2-2.606,3.938-2.597,5.279   c0.051,7.073,0.323,12.187,0.325,12.237c0.042,0.782-0.557,1.449-1.339,1.491C62.396,94.533,62.37,94.534,62.344,94.534z"/></g></svg>