<svg xmlns="http://www.w3.org/2000/svg" xmlns:xlink="http://www.w3.org/1999/xlink" version="1.1" x="0px" y="0px" viewBox="0 0 100 100" enable-background="new 0 0 100 100" xml:space="preserve"><path fill="#000000" d="M57.859,68.477c-9.287,2.402-19.421,2.204-25.477,2.082c-0.73-0.015-1.379-0.027-1.964-0.034  c0.232-0.391,0.42-0.837,0.553-1.331c0.398-1.473,0.215-3.222-0.798-4.111c0.036,0.001,0.076,0.009,0.112,0.009  c1.564,0,2.737-0.909,3.132-2.479c0.508-2.02-0.463-4.719-2.717-5.519c-0.619-0.219-1.23-0.412-1.836-0.593  c1.198-0.359,2.02-1.307,2.264-2.729c0.472-2.754-1.429-6.343-4.628-7.363c1.79-0.502,2.852-1.683,2.883-3.333  c0.043-2.269-1.888-4.634-4.074-5.143c1.09-0.625,2.285-1.362,3.594-2.184c2.239-1.406,5.623-3.53,6.338-3.253  c6.998,4.847,15.145,7.959,16.656,8.238l0.271-1.476c-1.266-0.233-9.242-3.264-16.074-7.996c-1.298-0.899-3.758,0.559-7.989,3.217  c-2.931,1.84-7.36,4.618-8.599,3.935c-0.297-0.164-0.359-0.686-0.359-1.094c-0.001-3.643,8.232-10.582,11.554-13.063  c8.673-2.391,22.591,3.595,25.648,5.757c3.719,2.63,4.029,6.899,4.179,8.95l0.024,0.337c0.578,7.272,28.03,7.521,31.762,7.521  c0.044,0,0.085,0,0.122,0l-0.002-1.5c-0.062,0-0.125,0-0.188,0c-11.568,0-29.841-1.657-30.197-6.14l-0.025-0.327  c-0.152-2.103-0.511-7.026-4.809-10.066c-2.433-1.721-17.241-8.755-27.058-5.938l-0.24,0.118c-0.325,0.241-1.306,0.98-2.579,2.027  c-3.101,0.444-15.143,3.543-15.669,3.679l-0.128,0.045c-0.083,0.039-0.862,0.42-2.395,1.863c-2.827,2.66-1.571,9.833-0.564,12.697  c0.259,0.737,0.513,1.272,0.781,1.645c-1.329,0.754-2.056,2.164-1.989,4.04c0.078,2.202,1.28,4.807,2.876,5.888  c-0.793,1.289-0.672,3.854,0.301,5.819c0.735,1.486,1.848,2.43,3.175,2.73c-0.252,0.415-0.449,0.962-0.572,1.634  c-0.426,2.321,0.111,5.843,2.636,6.409c0.564,0.127,1.649,0.232,3.151,0.378c0.589,0.057,1.23,0.12,1.905,0.19  c1.193,0.124,2.194,0.147,3.162,0.169c0.938,0.021,1.908,0.044,3.062,0.16c0.117,0.012,0.233,0.018,0.348,0.018  c0.496,0,0.962-0.121,1.393-0.326c0.825-0.026,2.028-0.004,3.544,0.026c6.131,0.122,16.395,0.323,25.881-2.13  c1.982-0.508,21.9,4.56,34.002,7.877l0.396-1.446C87.342,74.91,60.787,67.716,57.859,68.477z M10.172,31.677  c1.142-1.074,1.788-1.475,1.954-1.57c0.889-0.229,8.501-2.178,12.914-3.139c-3.231,2.897-6.911,6.786-7.347,9.781  c-1.308-0.217-2.383-0.402-2.893-0.491l-1.916-2.977l-1.262,0.812l2.271,3.529l0.323,0.057c0,0,1.542,0.271,3.546,0.602  c0.161,0.665,0.493,1.157,1.017,1.447c1.03,0.568,2.508,0.236,4.438-0.684l-0.012,0.082c0.543,0.077,1.056,0.145,1.517,0.2  c1.597,0.193,3.19,2.072,3.159,3.722c-0.029,1.554-1.556,2.006-2.831,2.111c-3.594,0.297-4.177,0.141-4.98-0.075  c-0.549-0.147-1.232-0.331-2.802-0.425c-2.715-0.164-4.329-0.329-5.507-0.45c-0.44-0.045-0.814-0.084-1.155-0.113  c-0.495-0.598-1.604-3.892-1.692-7.442C8.856,34.263,9.302,32.496,10.172,31.677z M8.871,48.912  c-0.065-1.815,0.74-2.845,2.393-3.062l5.869,0.305c0.524,0.101,4.96,0.949,8.329,1.536c3.027,0.528,4.525,3.858,4.187,5.829  c-0.154,0.898-0.73,1.904-2.559,1.593c-1.939-0.327-3.557-0.408-5.796-0.52c-0.806-0.041-1.7-0.085-2.729-0.147  c-2.349-0.141-3.886-0.3-5.009-0.417c-0.753-0.078-1.326-0.137-1.834-0.16C10.602,53.816,8.956,51.309,8.871,48.912z M11.893,60.008  c-0.865-1.75-0.787-3.781-0.353-4.411c0.079-0.115,0.128-0.131,0.165-0.131c0.003,0,0.006,0,0.009,0l5.485,0.759l0.058,0  c0.061,0.002,6.337-0.058,12.94,2.285c1.421,0.504,2.103,2.39,1.764,3.739c-0.181,0.718-0.699,1.527-2.116,1.31  c-5.688-0.868-8.213-1.033-11.137-1.224l-0.604-0.04c-0.792-0.052-1.47-0.113-2.06-0.167c-0.591-0.053-1.094-0.098-1.533-0.12  C13.132,61.941,12.326,60.883,11.893,60.008z M27.219,70.85c-1.212-0.122-2.211-0.145-3.177-0.167  c-0.981-0.022-1.909-0.044-3.042-0.162c-0.679-0.07-1.324-0.133-1.916-0.191c-1.338-0.13-2.493-0.242-2.968-0.349  c-1.036-0.232-1.395-1.556-1.516-2.325c-0.286-1.81,0.212-3.383,0.523-3.65l4.015,0.573c2.198,0.171,8.254,0.776,9.869,1.511  c0.603,0.274,0.838,1.517,0.516,2.714C29.234,69.876,28.479,70.972,27.219,70.85z"/></svg>