<svg xmlns="http://www.w3.org/2000/svg" xmlns:xlink="http://www.w3.org/1999/xlink" version="1.1" x="0px" y="0px" viewBox="0 0 100 100" enable-background="new 0 0 100 100" xml:space="preserve"><path fill="#000000" d="M69.778,38.465c-0.963-0.235-1.918-0.093-2.791,0.374c0.118-2.229-0.3-4.066-1.252-5.358  c-0.792-1.076-1.938-1.753-3.312-1.959c-1.387-0.206-3.158-0.311-4.536,0.74c-0.947,0.723-1.477,1.831-1.799,3.037  c0.292-5.986,0.815-15.318,1.073-18.047c0.508-5.381,0.008-8.579-1.622-10.37c-0.911-1.001-2.128-1.509-3.618-1.509  c-4.771,0-5.22,5.146-6.204,16.419l-0.117,1.335c-0.227,2.582-0.398,5.118-0.549,7.356c-0.222,3.275-0.464,6.86-0.827,8.979  c-0.813-2.468-1.931-7.207-2.954-13.255c-1.358-8.025-2.178-12.869-5.025-14.728c-1.157-0.755-2.569-0.932-4.197-0.523  c-3.758,0.943-2.964,5.932-2.124,11.213l0.23,1.465c0.286,1.857,0.597,3.655,0.907,5.449c0.676,3.913,1.376,7.959,1.77,12.519  c0.046,0.538,0.151,1.657,0.287,3.11c-0.112,0.069-0.227,0.135-0.319,0.238l-0.808,0.897c-4.282,4.747-6.867,7.612-5.036,13.29  c1.31,4.06,3.204,9.32,7.333,17.553c2.367,4.718,0.784,15.243,0.768,15.349c-0.119,0.773,0.412,1.498,1.185,1.616  c0.073,0.012,0.146,0.017,0.218,0.017c0.687,0,1.291-0.501,1.399-1.201c0.072-0.468,1.736-11.526-1.036-17.052  c-4.042-8.061-5.892-13.194-7.168-17.152c-1.259-3.903,0.192-5.793,3.814-9.824c0.313,3.359,0.675,7.268,0.934,10.294  c0.063,0.739,0.682,1.297,1.411,1.297c0.041,0,0.081-0.002,0.122-0.005c0.78-0.066,1.358-0.753,1.292-1.533  c-0.331-3.875-0.831-9.208-1.184-12.968c-0.185-1.972-0.33-3.509-0.387-4.171c-0.405-4.679-1.115-8.786-1.801-12.757  c-0.307-1.778-0.615-3.559-0.898-5.398l-0.233-1.479c-0.518-3.252-1.226-7.707,0.015-8.019c1.122-0.28,1.653-0.051,1.957,0.148  c1.809,1.181,2.679,6.321,3.78,12.827c2.943,17.396,4.763,17.239,5.975,17.13c2.556-0.229,2.83-4.273,3.429-13.136  c0.15-2.225,0.321-4.746,0.545-7.299l0.117-1.336c0.858-9.838,1.29-13.831,3.38-13.831c0.889,0,1.294,0.332,1.521,0.582  c1.004,1.103,1.305,3.861,0.896,8.196c-0.342,3.619-1.102,17.886-1.266,22.258c-0.024,0.644-0.062,1.187-0.094,1.644  c-0.107,1.52-0.24,3.411,1.794,3.712c0.566,0.084,1.137-0.069,1.609-0.429c1.052-0.803,1.686-2.688,2.119-6.3  c0.223-1.859,0.584-2.956,1.104-3.353c0.405-0.309,1.19-0.37,2.398-0.19c0.639,0.095,1.099,0.361,1.449,0.836  c0.693,0.942,0.902,2.707,0.573,4.843c-0.152,0.988-0.488,2.609-0.878,4.486c-0.111,0.538-0.229,1.105-0.349,1.691  c-0.003,0.016-0.009,0.041-0.011,0.053c0,0.001,0,0.001,0,0.002c-0.102,0.495-0.205,1-0.31,1.522  c-0.154,0.768,0.343,1.515,1.11,1.669c0.77,0.156,1.515-0.343,1.669-1.11c0.106-0.528,0.211-1.041,0.313-1.541  c0.335-1.655,1.346-4.572,2.648-5.4c0.299-0.19,0.566-0.236,0.889-0.159c2.552,0.621,2.662,1.988,2.337,6.053  c-0.054,0.68-0.11,1.382-0.142,2.099c-0.279,6.268-0.851,7.965-2.548,13.002l-0.491,1.461c-1.334,3.993-2.971,6.314-4.287,8.179  c-1.291,1.83-2.406,3.41-2.39,5.6c0.05,7.146,0.168,14.665,0.168,14.665c0.012,0.775,0.644,1.396,1.417,1.396  c0.007,0,0.015,0,0.022,0c0.783-0.012,1.407-0.656,1.395-1.439c0-0.002-0.117-7.507-0.167-14.642  c-0.009-1.225,0.601-2.145,1.871-3.945c1.347-1.91,3.192-4.526,4.659-8.914l0.489-1.455c1.745-5.176,2.397-7.113,2.694-13.781  c0.03-0.683,0.084-1.352,0.136-2C74.562,43.847,74.893,39.709,69.778,38.465z"/></svg>